<?xml version="1.0" encoding="utf-8"?>
<!-- Generator: Adobe Illustrator 24.2.1, SVG Export Plug-In . SVG Version: 6.00 Build 0)  -->
<svg version="1.1" id="레이어_1" xmlns="http://www.w3.org/2000/svg" xmlns:xlink="http://www.w3.org/1999/xlink" x="0px"
	 y="0px" viewBox="0 0 277 66" style="enable-background:new 0 0 277 66;" xml:space="preserve">
<g>
	<path d="M158.45,13.5c0.93,0,1.8-0.41,2.6-1.23c1.09-1.12,1.64-2.44,1.64-3.96c0-0.82-0.19-1.56-0.58-2.22
		c-0.46-0.75-1.15-1.13-2.08-1.13c-0.93,0-1.81,0.41-2.63,1.23c-1.07,1.09-1.61,2.44-1.61,4.03c0,0.77,0.19,1.49,0.58,2.15
		C156.82,13.13,157.51,13.5,158.45,13.5z"/>
	<path d="M199.88,12.48c0.93,0,1.8-0.41,2.6-1.23c1.09-1.12,1.64-2.44,1.64-3.96c0-0.82-0.19-1.56-0.58-2.22
		c-0.46-0.75-1.15-1.13-2.08-1.13c-0.93,0-1.81,0.41-2.63,1.23c-1.09,1.09-1.64,2.44-1.64,4.03c0,0.77,0.21,1.49,0.62,2.15
		C198.25,12.1,198.94,12.48,199.88,12.48z"/>
	<path d="M276.85,25.16c-0.41-0.39-0.91-0.58-1.5-0.58c-0.98,0-1.63,0.49-1.95,1.47c-1.71,5.38-4.69,8.19-8.96,8.44
		c0.43-1.82,0.65-3.71,0.65-5.67c0-2.19-0.24-4.12-0.72-5.81c-0.8-3.01-2.35-4.6-4.65-4.79c-0.07-0.41-0.26-0.83-0.58-1.26
		c-0.68-0.89-1.94-1.33-3.76-1.33c-2.46,0-4.67,0.58-6.63,1.74c-3.87,2.32-6.6,5.97-8.17,10.94c-0.01,0.04-0.02,0.08-0.03,0.12
		c-1.78,3.83-4.45,5.86-8.03,6.07c0.43-1.82,0.65-3.71,0.65-5.67c0-2.19-0.24-4.12-0.72-5.81c-0.8-3.01-2.35-4.6-4.65-4.79
		c-0.07-0.41-0.26-0.83-0.58-1.26c-0.68-0.89-1.94-1.33-3.76-1.33c-2.46,0-4.67,0.58-6.63,1.74c-3.86,2.32-6.58,5.95-8.15,10.89
		c-0.9,2.13-2.08,4.32-3.56,6.59c-1.99,3.06-4.3,5.75-6.92,8.05c0.64-4.97,1.22-9.21,1.76-12.73c0.53-3.52,1.26-6.81,2.17-9.86
		c0.27-0.96,0.41-1.69,0.41-2.19c0-0.8-0.5-1.52-1.5-2.15c-1-0.64-2.03-0.96-3.08-0.96c-3.17,0-5.86,2.07-8.07,6.22
		c-0.98,1.8-1.69,3.41-2.12,4.82c-1.96,5.9-3.59,9.83-4.9,11.77c-1.31,1.95-2.59,2.92-3.85,2.92c-2.3,0-3.45-2.05-3.45-6.15
		c0-1.94,0.21-4.19,0.62-6.77c0.84-5.26,2.59-12.24,5.23-20.92c0.89-2.96,1.33-4.68,1.33-5.16c0-1.18-0.87-1.78-2.6-1.78
		c-2.28,0-3.69,0.92-4.24,2.77c-0.34,1.19-0.81,2.71-1.4,4.58c-2.01,6.36-3.54,11.84-4.61,16.44c-0.22,0.93-0.4,1.82-0.58,2.69
		c-3.2,9.52-6.07,14.3-8.61,14.3c-2.67,0-4-2.03-4-6.08c0-3.4,0.9-8.18,2.7-14.36c0.48-1.62,0.72-2.59,0.72-2.91
		c0-1.16-0.84-1.75-2.53-1.78c-0.93,0-1.82,0.23-2.65,0.7c-0.83,0.47-1.35,1.03-1.56,1.69c-0.9,2.95-1.64,5.66-2.23,8.15
		c-3.26,9.71-6.16,14.58-8.67,14.58c-1.03,0-1.82-0.47-2.38-1.4c-0.56-0.93-0.84-2.3-0.84-4.1c0-1.59,0.3-3.96,0.91-7.11
		c0.6-3.14,0.91-5.26,0.91-6.36c0-4.1-2.08-6.15-6.25-6.15c-3.74,0-6.75,2.28-9.02,6.84c-0.71,1.41-1.37,3.04-1.98,4.89
		c0.93-4.17,1.71-7.15,2.32-8.96c0.14-0.41,0.21-0.76,0.21-1.06c0-1.12-0.82-1.69-2.46-1.71c-0.93,0-1.83,0.23-2.68,0.7
		c-0.85,0.47-1.4,1.03-1.62,1.69l-1.16,3.45c-0.77,2.23-1.45,4.3-2.03,6.22c-1.77,4.31-4.55,6.58-8.36,6.81
		c0.43-1.82,0.65-3.71,0.65-5.67c0-2.19-0.24-4.12-0.72-5.81c-0.8-3.01-2.35-4.6-4.65-4.79c-0.07-0.41-0.26-0.83-0.58-1.26
		c-0.68-0.89-1.94-1.33-3.76-1.33c-2.46,0-4.67,0.58-6.63,1.74c-3.87,2.32-6.6,5.97-8.17,10.94c-0.01,0.04-0.02,0.08-0.03,0.12
		c-1.78,3.83-4.45,5.86-8.03,6.07c0.43-1.82,0.65-3.71,0.65-5.67c0-2.19-0.24-4.12-0.72-5.81c-0.8-3.01-2.35-4.6-4.65-4.79
		c-0.07-0.41-0.26-0.83-0.58-1.26c-0.68-0.89-1.94-1.33-3.76-1.33c-2.46,0-4.67,0.58-6.63,1.74c-3.87,2.32-6.6,5.97-8.17,10.94
		c-0.13,0.4-0.23,0.81-0.33,1.21c-2.79,7.49-5.28,11.23-7.49,11.23c-1.03,0-1.82-0.47-2.38-1.4c-0.56-0.93-0.84-2.3-0.84-4.1
		c0-1.59,0.3-3.96,0.91-7.11c0.6-3.14,0.91-5.26,0.91-6.36c0-4.1-2.08-6.15-6.25-6.15c-3.74,0-6.75,2.28-9.02,6.84
		c-0.27,0.55-0.54,1.12-0.79,1.71c0.05-0.46,0.07-0.89,0.07-1.3c0-2.35-0.55-4.03-1.64-5.06c-1.5-1.46-3.2-2.19-5.09-2.19
		c-1.87,0-3.42,0.56-4.65,1.67c-1.78,1.62-3.76,5.2-5.95,10.73c0.8-3.51,1.55-6.41,2.26-8.72c0.3-0.93,0.44-1.59,0.44-1.98
		c0-1.12-0.82-1.69-2.46-1.71c-0.93,0-1.83,0.23-2.68,0.7c-0.85,0.47-1.4,1.03-1.62,1.69l-1.16,3.45
		c-3.12,8.98-4.68,15.47-4.68,19.48c0,2.67,0.57,4.6,1.71,5.81c0.82,0.89,2.05,1.33,3.69,1.33c1.69,0,3.18-0.66,4.48-1.98
		c-0.39-0.73-0.58-1.62-0.58-2.67c0-1.59,0.95-5.1,2.84-10.53c3.19-8.93,5.72-13.4,7.59-13.4c0.75,0,1.13,0.75,1.13,2.26
		c0,1.07-0.39,2.88-1.16,5.43c-1.6,5.29-2.39,9.52-2.39,12.71c0,4.53,1.73,6.8,5.2,6.8c1.98,0,3.55-1.06,4.72-3.18
		c-0.48-1.3-0.72-2.32-0.72-3.08c0-1.64,0.39-3.9,1.18-6.78c0.79-2.88,1.87-5.83,3.26-8.84c1.64-3.55,3.24-5.33,4.79-5.33
		c0.75,0,1.13,0.75,1.13,2.26c0,0.91-0.18,2.07-0.55,3.49C34.7,30.64,34,35.04,34,38.46c0,6.43,2.59,9.64,7.76,9.64
		c3.79,0,7.19-2.61,10.19-7.83c0.57,1.78,1.45,3.3,2.67,4.54c2.05,2.1,4.83,3.14,8.34,3.14c5.08,0,9-3.09,11.76-9.26l0.75,0.03
		c3.02,0,5.59-0.75,7.71-2.24c0.24,3.51,1.36,6.28,3.37,8.32c2.05,2.1,4.83,3.14,8.34,3.14c5.08,0,9-3.09,11.76-9.26l0.75,0.03
		c2.56,0,4.8-0.54,6.71-1.61c-0.23,1.46-0.35,2.74-0.35,3.83c0,0.77,0.07,1.71,0.22,2.82c0.15,1.11,0.63,2.1,1.45,2.99
		s2.06,1.33,3.73,1.33c1.82,0,3.43-0.79,4.82-2.36c0-3.83,0.59-7.84,1.78-12.03c0.89-3.42,1.9-6.37,3.04-8.85
		c1.64-3.55,3.24-5.33,4.79-5.33c0.75,0,1.13,0.75,1.13,2.26c0,0.91-0.18,2.07-0.55,3.49c-1.39,5.38-2.08,9.78-2.08,13.19
		c0,6.43,2.59,9.64,7.76,9.64c3.67,0,6.96-2.45,9.88-7.31c0.71,4.87,3.32,7.31,7.86,7.31c4.23,0,7.81-2.63,10.74-7.86
		c0.04,0.37,0.09,0.74,0.14,1.13c0.24,1.71,0.95,3.26,2.12,4.65s2.94,2.08,5.31,2.08c4.65,0,8.51-3.16,11.59-9.47
		c1.32-2.69,2.64-6.08,3.96-10.19c0.17-0.53,0.28-0.93,0.34-1.25c0.38-1.13,0.84-2.21,1.37-3.23c0.84-1.66,1.61-2.87,2.29-3.62
		c-1.66,5.65-3.41,14.67-5.23,27.07c-1.41,0.57-2.81,1.15-4.2,1.74c-1.75,0.75-3.42,1.66-4.99,2.73c-2.8,1.98-4.2,4.55-4.2,7.69
		c0,2.14,0.64,3.83,1.91,5.06c1.28,1.23,3,1.85,5.16,1.85c5.51,0,9.4-3.35,11.66-10.05c0.84-2.46,1.47-5.05,1.88-7.76
		c3.67-2.37,6.95-5.55,9.84-9.54c0.21-0.29,0.41-0.58,0.61-0.87c0.45,2.68,1.5,4.86,3.15,6.55c2.05,2.1,4.83,3.14,8.34,3.14
		c5.08,0,9-3.09,11.76-9.26l0.75,0.03c3.02,0,5.59-0.75,7.71-2.24c0.24,3.51,1.36,6.28,3.37,8.32c2.05,2.1,4.83,3.14,8.34,3.14
		c5.08,0,9-3.09,11.76-9.26l0.75,0.03c6.49,0,10.9-3.43,13.23-10.29c0.3-0.87,0.44-1.45,0.44-1.74
		C277.46,26.06,277.26,25.55,276.85,25.16z M64.39,41.57c-1.55,0-2.79-0.54-3.73-1.61c-1.37-1.55-2.05-3.75-2.05-6.6
		c0-2.76,0.59-5.41,1.78-7.96c0.75-1.64,1.69-2.98,2.82-4.02c1.13-1.04,2.39-1.58,3.78-1.62c-1.73,1.69-2.6,4.31-2.6,7.86
		c0,3.14,1.04,5.78,3.11,7.9c0.62,0.66,1.3,1.22,2.05,1.67C68.18,40.11,66.46,41.57,64.39,41.57z M71.02,32.82
		c-1.41-1.41-2.12-3.51-2.12-6.29c0-2.44,0.46-3.66,1.37-3.66c0.87,0,1.3,1.65,1.3,4.96C71.56,29.53,71.38,31.2,71.02,32.82z
		 M96.31,41.57c-1.55,0-2.79-0.54-3.73-1.61c-1.37-1.55-2.05-3.75-2.05-6.6c0-2.76,0.59-5.41,1.78-7.96
		c0.75-1.64,1.69-2.98,2.82-4.02c1.13-1.04,2.39-1.58,3.78-1.62c-1.73,1.69-2.6,4.31-2.6,7.86c0,3.14,1.04,5.78,3.11,7.9
		c0.62,0.66,1.3,1.22,2.05,1.67C100.1,40.11,98.38,41.57,96.31,41.57z M102.94,32.82c-1.41-1.41-2.12-3.51-2.12-6.29
		c0-2.44,0.46-3.66,1.37-3.66c0.87,0,1.3,1.65,1.3,4.96C103.49,29.53,103.31,31.2,102.94,32.82z M188.39,54.83
		c-1.44,3.62-3.24,5.43-5.4,5.43c-0.87,0-1.3-0.57-1.3-1.71c0-1.3,0.79-2.5,2.36-3.59c1.21-0.82,2.93-1.69,5.16-2.6
		C188.98,53.23,188.71,54.05,188.39,54.83z M220.79,41.57c-1.55,0-2.79-0.54-3.73-1.61c-1.37-1.55-2.05-3.75-2.05-6.6
		c0-2.76,0.59-5.41,1.78-7.96c0.75-1.64,1.69-2.98,2.82-4.02c1.13-1.04,2.39-1.58,3.78-1.62c-1.73,1.69-2.6,4.31-2.6,7.86
		c0,3.14,1.04,5.78,3.11,7.9c0.62,0.66,1.3,1.22,2.05,1.67C224.59,40.11,222.87,41.57,220.79,41.57z M227.42,32.82
		c-1.41-1.41-2.12-3.51-2.12-6.29c0-2.44,0.46-3.66,1.37-3.66c0.87,0,1.3,1.65,1.3,4.96C227.97,29.53,227.79,31.2,227.42,32.82z
		 M252.72,41.57c-1.55,0-2.79-0.54-3.73-1.61c-1.37-1.55-2.05-3.75-2.05-6.6c0-2.76,0.59-5.41,1.78-7.96
		c0.75-1.64,1.69-2.98,2.82-4.02c1.13-1.04,2.39-1.58,3.78-1.62c-1.73,1.69-2.6,4.31-2.6,7.86c0,3.14,1.04,5.78,3.11,7.9
		c0.62,0.66,1.3,1.22,2.05,1.67C256.51,40.11,254.79,41.57,252.72,41.57z M259.35,32.82c-1.41-1.41-2.12-3.51-2.12-6.29
		c0-2.44,0.46-3.66,1.37-3.66c0.87,0,1.3,1.65,1.3,4.96C259.89,29.53,259.71,31.2,259.35,32.82z"/>
</g>
</svg>
