<?xml version="1.0" encoding="utf-8"?>
<!-- Generator: Adobe Illustrator 24.2.1, SVG Export Plug-In . SVG Version: 6.00 Build 0)  -->
<svg version="1.1" id="Browser_Template" xmlns="http://www.w3.org/2000/svg" xmlns:xlink="http://www.w3.org/1999/xlink" x="0px"
	 y="0px" viewBox="0 0 1380.66 1033.95" style="enable-background:new 0 0 1380.66 1033.95;" xml:space="preserve">
<style type="text/css">
	.st0{fill:#FBFBFB;stroke:#CCCCCC;stroke-width:0.4514;stroke-miterlimit:10;}
	.st1{fill:none;stroke:#737373;stroke-width:1.3585;stroke-miterlimit:10;}
	.st2{fill:none;stroke:#737373;stroke-width:1.045;stroke-miterlimit:10;}
	.st3{fill:#E2E2E2;}
	.st4{fill:#F25F58;}
	.st5{fill:#FBBE3C;}
	.st6{fill:#58CB42;}
	.st7{fill:none;stroke:#FFFFFF;stroke-miterlimit:10;}
	.st8{fill:#737373;}
	.st9{fill:#B3B3B3;}
	.st10{fill:#FFFFFF;}
	.st11{fill:none;stroke:#737373;stroke-width:1.322;stroke-linecap:round;stroke-linejoin:round;stroke-miterlimit:10;}
	.st12{fill:none;stroke:#737373;stroke-width:1.3585;stroke-linecap:round;stroke-linejoin:round;stroke-miterlimit:10;}
	.st13{fill:none;stroke:#737373;stroke-width:1.3585;stroke-linecap:round;stroke-miterlimit:10;}
	.st14{fill:#383838;}
	.st15{fill:#7C7C7C;}
	.st16{fill:none;stroke:#FFFFFF;stroke-width:10;stroke-miterlimit:10;}
	.st17{fill:none;stroke:#FFFFFF;stroke-width:5;stroke-miterlimit:10;}
</style>
<g id="Sidebar">
	<path class="st0" d="M1262.03,37.79h114.42c3.46,0,6.27,2.81,6.27,6.27v74.95c0,3.46-2.81,6.27-6.27,6.27h-114.42
		c-3.46,0-6.27-2.81-6.27-6.27V44.06C1255.76,40.6,1258.57,37.79,1262.03,37.79z"/>
	<path class="st1" d="M1346.11,100.83h-52.59c-0.2,0-0.37-0.16-0.37-0.37v-39.9c0-0.2,0.16-0.37,0.37-0.37h52.59
		c0.2,0,0.37,0.16,0.37,0.37v39.9C1346.48,100.67,1346.32,100.83,1346.11,100.83z"/>
	<line class="st1" x1="1310.93" y1="61.48" x2="1310.93" y2="102.1"/>
	<g>
		<line class="st2" x1="1299.5" y1="75.44" x2="1304.58" y2="75.44"/>
		<line class="st2" x1="1299.5" y1="67.83" x2="1304.58" y2="67.83"/>
		<line class="st2" x1="1299.5" y1="83.06" x2="1304.58" y2="83.06"/>
	</g>
</g>
<g>
	<g>
		<g id="Browser_BG_2_">
			<g>
				<path class="st3" d="M1375.66,122.72v902.88c0,1.85-1.51,3.36-3.36,3.36H8.36c-1.85,0-3.36-1.51-3.36-3.36V122.72H1375.66
					 M1380.66,117.72H0v907.88c0,4.62,3.74,8.36,8.36,8.36H1372.3c4.62,0,8.36-3.74,8.36-8.36V117.72L1380.66,117.72z"/>
			</g>
		</g>
		<path id="Top_BG_3_" class="st3" d="M1380.66,175.95H0V20.93C0,9.37,10.45,0,19.94,0h1346.07c8.3,0,14.65,9.37,14.65,20.93V175.95
			z"/>
		<g id="Dots_2_">
			<circle class="st4" cx="81.08" cy="87.97" r="44.49"/>
			<circle class="st5" cx="231.53" cy="87.97" r="44.49"/>
			<circle class="st6" cx="381.98" cy="87.97" r="44.49"/>
		</g>
		<path class="st7" d="M108.76,183.36"/>
		<path class="st7" d="M426.47-19.56"/>
	</g>
	<g id="Previous">
		<path class="st0" d="M541.92,133.71h-74.95c-3.46,0-6.27-2.81-6.27-6.27V52.48c0-3.46,2.81-6.27,6.27-6.27h74.95
			c3.46,0,6.27,2.81,6.27,6.27v74.95C548.19,130.9,545.38,133.71,541.92,133.71z"/>
		<g>
			<g>
				<path class="st8" d="M509.77,70.62c-6.3,5.4-12.59,10.79-18.89,16.19c-0.91,0.78-1.82,1.56-2.73,2.34c-0.4,0.34-0.39,1.1,0,1.44
					c6.3,5.46,12.61,10.91,18.91,16.37c0.9,0.78,1.8,1.56,2.7,2.34c0.99,0.85,2.43-0.58,1.44-1.44
					c-6.3-5.46-12.61-10.91-18.91-16.37c-0.9-0.78-1.8-1.56-2.7-2.34c0,0.48,0,0.96,0,1.44c6.3-5.4,12.59-10.79,18.89-16.19
					c0.91-0.78,1.82-1.56,2.73-2.34C512.21,71.21,510.76,69.77,509.77,70.62L509.77,70.62z"/>
			</g>
		</g>
	</g>
	<g id="Next">
		<path class="st0" d="M563.83,46.21h74.95c3.46,0,6.27,2.81,6.27,6.27v74.95c0,3.46-2.81,6.27-6.27,6.27h-74.95
			c-3.46,0-6.27-2.81-6.27-6.27V52.48C557.56,49.02,560.37,46.21,563.83,46.21z"/>
		<g>
			<g>
				<path class="st9" d="M594.79,109.3c6.3-5.4,12.59-10.79,18.89-16.19c0.91-0.78,1.82-1.56,2.73-2.34c0.4-0.34,0.39-1.1,0-1.44
					c-6.3-5.46-12.61-10.91-18.91-16.37c-0.9-0.78-1.8-1.56-2.7-2.34c-0.99-0.85-2.43,0.58-1.44,1.44
					c6.3,5.46,12.61,10.91,18.91,16.37c0.9,0.78,1.8,1.56,2.7,2.34c0-0.48,0-0.96,0-1.44c-6.3,5.4-12.59,10.79-18.89,16.19
					c-0.91,0.78-1.82,1.56-2.73,2.34C592.35,108.71,593.8,110.15,594.79,109.3L594.79,109.3z"/>
			</g>
		</g>
	</g>
	<g>
		<path id="Address_Bar" class="st10" d="M1189.52,133.71H666.34c-3.46,0-6.27-2.81-6.27-6.27V52.48c0-3.46,2.81-6.27,6.27-6.27
			h523.18c3.46,0,6.27,2.81,6.27,6.27v74.95C1195.79,130.9,1192.98,133.71,1189.52,133.71z"/>
		<line id="Line_1_" class="st1" x1="751.73" y1="60.5" x2="751.73" y2="117.43"/>
		<g id="Magnifying_Glass">
			<circle class="st11" cx="704.7" cy="86.49" r="14.85"/>
			<line class="st12" x1="714.35" y1="98.44" x2="725.38" y2="109.47"/>
		</g>
		<g id="Refresh">
			<path class="st13" d="M1164.07,72.32c-2.25-0.95-4.73-1.48-7.33-1.48c-2.6,0-5.08,0.53-7.33,1.48c-2.25,0.95-4.28,2.33-5.99,4.04
				s-3.08,3.73-4.04,5.99c-0.95,2.25-1.48,4.73-1.48,7.33s0.53,5.08,1.48,7.33c0.95,2.25,2.33,4.28,4.04,5.99s3.73,3.08,5.99,4.04
				c2.25,0.95,4.73,1.48,7.33,1.48c2.6,0,5.08-0.53,7.33-1.48c2.25-0.95,4.28-2.33,5.99-4.04s3.08-3.73,4.04-5.99
				c0.95-2.25,1.48-4.73,1.48-7.33"/>
			<g>
				<polygon class="st8" points="1158.13,62.73 1173.82,72.37 1157.63,81.14 				"/>
			</g>
		</g>
	</g>
</g>
<g>
	<g id="Browser_BG_1_">
		<path class="st14" d="M2992.3,1033.95H1628.36c-4.62,0-8.36-3.74-8.36-8.36V117.71h1380.66v907.88
			C3000.66,1030.21,2996.92,1033.95,2992.3,1033.95z"/>
	</g>
	<path id="Top_BG_2_" class="st15" d="M3000.66,175.95H1620V20.93C1620,9.37,1630.45,0,1639.94,0h1346.07
		c8.3,0,14.65,9.37,14.65,20.93V175.95z"/>
	<g id="Dots_1_">
		<circle class="st4" cx="1701.08" cy="87.97" r="44.49"/>
		<circle class="st5" cx="1851.53" cy="87.97" r="44.49"/>
		<circle class="st6" cx="2001.98" cy="87.97" r="44.49"/>
	</g>
	<path class="st7" d="M1728.76,183.36"/>
	<path class="st7" d="M2046.47-19.56"/>
	<g>
		<polyline class="st16" points="1707.71,262.28 1748.45,303.02 1707.71,343.75 		"/>
		<line class="st17" x1="1779.71" y1="353.47" x2="1856.07" y2="353.47"/>
	</g>
</g>
</svg>
